

<svg version="1.1" xmlns="http://www.w3.org/2000/svg" xmlns:xlink="http://www.w3.org/1999/xlink" x="0px" y="0px" viewBox="0 0 1000 1000" enable-background="new 0 0 1000 1000" xml:space="preserve">
<g><g transform="translate(0.000000,512.000000) scale(0.100000,-0.100000)"><path d="M147.9,4972.1l-47.9-45.9V129.6V-4669l55.5-55.5L211-4780h4789h4789l55.5,55.5l55.5,55.5V129.6v4796.6l-47.9,45.9l-45.9,47.9H5000H193.8L147.9,4972.1z M9574.6,4043.8V3393H5000H425.4v650.8v650.8H5000h4574.6V4043.8z M9574.6-693.5v-3761.1H5000H425.4v3761.1v3761.1H5000h4574.6V-693.5z"/><path d="M718.2,4401.8l-120.6-122.5V4040v-239.3l132.1-126.3l132.1-128.2h204.8c112.9,0,222,9.6,245,21.1c61.3,30.6,202.9,172.3,235.4,231.6c17.2,34.4,26.8,116.7,26.8,254.6v204.8l-128.2,132.1l-126.3,132.1H1080H840.7L718.2,4401.8z M1214,4164.4c51.7-45.9,47.9-191.4-7.7-248.8c-51.7-55.5-193.3-61.2-248.8-11.5c-40.2,36.4-49.8,231.6-11.5,269.9C980.5,4208.4,1171.9,4202.7,1214,4164.4z"/><path d="M1862.9,4399.8l-126.3-124.4v-231.6v-231.6l135.9-132.1l137.8-134h214.4H2439l135.9,132.1l135.9,132.1l7.7,181.8c9.6,233.5-9.6,289-149.3,423l-112.9,107.2h-231.6h-233.5L1862.9,4399.8z M2354.8,4174c34.5-34.4,28.7-225.9-9.6-268c-45.9-51.7-191.4-47.9-248.8,7.7c-53.6,49.8-61.2,174.2-13.4,241.2c24.9,34.5,47.9,42.1,139.7,42.1C2282,4197,2341.4,4187.4,2354.8,4174z"/><path d="M3003.6,4390.3l-128.2-132.1v-204.8c0-137.8,9.6-220.1,26.8-254.6c38.3-72.7,208.6-229.7,268-245c26.8-5.7,134-7.7,241.2-3.8l193.3,5.7l124.4,126.3l122.5,128.2v235.4v233.5L3731,4401.8l-122.5,120.6h-239.3H3130L3003.6,4390.3z M3491.7,4164.4c45.9-42.1,47.9-208.6,1.9-258.4c-44-49.8-202.9-47.9-254.6,3.8c-49.8,49.8-53.6,201-5.7,252.7C3275.4,4208.4,3442,4210.4,3491.7,4164.4z"/><path d="M4144.4,4399.8l-120.6-124.4v-233.5v-231.6l122.5-128.2l124.4-126.3l202.9-5.7c128.2-5.7,224,1.9,258.4,15.3c30.6,13.4,103.4,72.7,160.8,134l107.2,112.9v220.1v222l-99.5,109.1c-53.6,61.2-112.9,120.6-128.2,134c-21.1,15.3-111,23-269.9,24.9H4265L4144.4,4399.8z M4640.2,4164.4c24.9-23,34.4-57.4,34.4-132.1c0-120.6-40.2-160.8-162.7-160.8c-120.6,0-162.7,40.2-162.7,157c0,132.1,34.4,168.4,158.9,168.4C4571.2,4197,4617.2,4185.5,4640.2,4164.4z"/><path d="M7497.9,4474.5c-61.3-59.3-61.3-143.6-1.9-212.5c93.8-111,279.4-38.3,279.4,109.1C7775.4,4505.1,7595.5,4574,7497.9,4474.5z"/><path d="M7989.8,4478.3c-80.4-86.1-40.2-235.4,72.7-271.8c99.5-30.6,227.8,91.9,202.9,193.3C8234.8,4518.5,8072.1,4564.5,7989.8,4478.3z"/><path d="M8506.6,4508.9c-42.1-17.2-84.2-120.6-70.8-178c26.8-122.5,174.2-164.6,268-76.6c99.5,93.8,34.5,269.9-101.4,266.1C8564,4520.4,8520,4514.7,8506.6,4508.9z"/><path d="M8964,4472.6c-89.9-112.9-17.2-264.1,126.3-264.1c76.6,0,158.9,74.6,158.9,143.6c0,53.6-49.8,143.6-86.1,158.9C9088.4,4539.6,9004.2,4522.3,8964,4472.6z"/><path d="M7497.9,3823.7c-67-65.1-63.2-149.3,7.7-222c34.4-32.5,76.6-55.5,107.2-55.5c72.7,0,162.7,95.7,162.7,172.3C7775.4,3854.3,7595.5,3923.2,7497.9,3823.7z"/><path d="M7997.4,3831.4c-36.4-28.7-49.8-57.4-49.8-103.4c0-90,15.3-122.5,80.4-155c111-57.4,233.5,13.4,233.5,135.9C8261.6,3848.6,8108.4,3919.4,7997.4,3831.4z"/><path d="M8483.6,3833.3c-84.2-84.2-65.1-206.7,40.2-266.1c97.6-55.5,227.8,26.8,227.8,145.5C8751.6,3846.7,8575.5,3925.2,8483.6,3833.3z"/><path d="M8971.7,3823.7c-70.8-68.9-65.1-164.6,11.5-227.8c76.6-65.1,141.7-63.2,210.5,5.7c61.3,63.2,68.9,111,26.8,191.4C9172.7,3886.9,9048.2,3902.2,8971.7,3823.7z"/><path d="M2624.6,2870.5c-57.4-44-74.6-107.2-74.6-277.5v-172.3l-57.4-23c-149.3-63.2-139.7-268,15.3-313.9c40.2-13.4,42.1-23,42.1-201c0-172.3,3.8-191.4,47.9-239.3l45.9-49.8H2950c296.7,0,308.2,1.9,359.8,45.9c51.7,44,53.6,55.5,59.3,239.3l7.7,193.3h333c373.2,0,428.7,13.4,463.2,114.8c15.3,40.2,15.3,74.6,0,114.8c-34.4,101.4-90,114.8-463.2,114.8h-333l-7.7,193.3c-5.7,183.8-7.7,195.2-59.3,239.3c-51.7,44-63.2,45.9-354.1,45.9C2749.1,2893.5,2645.7,2887.7,2624.6,2870.5z M3043.8,2244.6v-325.4h-84.2h-84.2v325.4V2570h84.2h86.1L3043.8,2244.6z"/><path d="M5400,2870.5c-57.4-44-74.7-107.2-74.7-279.5v-174.2h-172.3c-114.8,0-193.3-9.6-227.8-28.7c-101.5-51.7-120.6-195.2-36.4-271.8c30.6-26.8,78.5-36.4,237.3-40.2l199.1-7.7v-172.3c0-290.9,13.4-300.5,415.4-302.4h308.2l49.8,59.3c45.9,53.6,49.8,72.7,49.8,239.3v179.9h172.3c201,0,273.7,26.8,302.4,114.8c28.7,78.5-3.8,164.6-74.6,201c-34.5,19.1-111,28.7-225.9,28.7h-170.3l-7.7,193.3c-5.7,183.8-7.6,195.2-59.3,239.3c-51.7,44-63.2,45.9-354.1,45.9C5524.5,2893.5,5421.1,2887.7,5400,2870.5z M5821.1,2244.6v-325.4H5735h-84.2v325.4V2570h84.2h86.1V2244.6z"/><path d="M8156.3,2839.9c-53.6-53.6-55.5-63.2-55.5-239.3v-183.8h-335c-371.3,0-426.8-13.4-467-111c-28.7-67-11.5-141.7,40.2-189.5c34.5-30.6,82.3-34.4,400-40.2l361.8-5.7v-172.3c0-292.9,13.4-302.4,415.4-304.3h308.2l49.8,59.3c45.9,53.6,49.8,72.7,49.8,237.3v178l59.3,24.9c84.2,34.5,122.5,128.2,86.1,214.4c-15.3,40.2-47.9,72.7-86.1,88.1l-59.3,24.9v181.8c0,174.2-1.9,183.7-55.5,237.3l-55.5,55.5h-300.5h-300.5L8156.3,2839.9z M8596.5,2244.6v-325.4h-86.1h-84.2v325.4V2570h86.1h84.2V2244.6z"/><path d="M1279.1,2721.2c-237.3-38.3-493.8-237.3-608.7-472.8c-59.3-118.7-63.2-139.7-63.2-329.2c0-191.4,3.8-208.6,65.1-335c172.3-348.4,560.8-547.4,897.7-461.3c65.1,15.3,155,47.9,199.1,70.8c103.4,53.6,273.7,214.4,335,319.6c63.2,109.1,120.6,294.8,120.6,394.3c0,189.5-105.3,438.3-248.8,583.8c-95.7,97.6-312,206.7-459.4,229.7c-68.9,11.5-128.2,19.1-134,19.1C1376.7,2738.4,1330.7,2730.8,1279.1,2721.2z M1604.5,2372.9c7.7-7.7-67-97.6-168.4-201c-99.5-101.5-187.6-201-193.3-218.2c-19.1-53.6,24.9-149.3,84.2-178c99.5-51.7,128.2-38.3,335,164.6l195.2,193.3l21.1-72.7c65.1-235.4-38.3-486.2-241.2-583.8c-114.8-55.5-302.4-61.2-430.7-11.5c-109.1,42.1-235.4,174.2-262.2,273.7c-26.8,99.5-26.8,262.2,1.9,359.8c28.7,95.7,176.1,250.7,266,277.5C1284.8,2397.7,1581.5,2395.8,1604.5,2372.9z"/><path d="M2433.2,1371.8l-45.9-49.8l-5.7-2639.5c-3.8-2878.8-9.6-2750.5,101.4-2792.6c32.5-13.4,1211.6-19.1,3351.5-19.1h3303.7l55.5,55.5l55.5,55.5v2654.8c0,2827.1,1.9,2739-86.1,2773.5c-17.2,5.7-1527.4,11.5-3357.3,11.5H2479.2L2433.2,1371.8z M3694.6,608.1V120h-486.2h-486.2v488.1v488.1h486.2h486.2V608.1z M5000,608.1V120h-488.1h-488.1v488.1v488.1h488.1H5000V608.1z M6301.6,608.1V120h-488.1h-488.1v488.1v488.1h488.1h488.1V608.1z M7603.1,608.1V120h-478.5h-478.5v488.1v488.1h478.5h478.5V608.1z M8923.8,608.1V120h-488.1h-488.1v488.1v488.1h488.1h488.1V608.1z M3692.7-697.3l1.9-484.3h-486.2h-486.2v488.1v488.1l484.3-3.8l482.3-5.7L3692.7-697.3z M5000-693.5v-488.1h-488.1h-488.1v488.1v488.1h488.1H5000V-693.5z M6301.6-693.5v-488.1h-488.1h-488.1v488.1v488.1h488.1h488.1V-693.5z M7603.1-693.5v-488.1h-478.5h-478.5v488.1v488.1h478.5h478.5V-693.5z M8923.8-693.5v-488.1h-488.1h-488.1v488.1v488.1h488.1h488.1V-693.5z M3692.7-1998.9l-3.8-474.7l-482.3-5.7l-484.3-3.8v478.5v478.5h486.2h486.2L3692.7-1998.9z M5000-2004.6v-478.5h-488.1h-488.1v478.5v478.5h488.1H5000V-2004.6z M6301.6-2004.6v-478.5h-488.1h-488.1v478.5v478.5h488.1h488.1V-2004.6z M7603.1-2004.6v-478.5h-478.5h-478.5v478.5v478.5h478.5h478.5V-2004.6z M8923.8-2004.6v-478.5h-488.1h-488.1v478.5v478.5h488.1h488.1V-2004.6z M3690.8-3310l-1.9-484.3l-482.3-5.7l-484.3-3.8v488.1v488.1h486.2h486.2L3690.8-3310z M5000-3315.7v-488.1h-488.1h-488.1v488.1v488.1h488.1H5000V-3315.7z M6301.6-3315.7v-488.1h-488.1h-488.1v488.1v488.1h488.1h488.1V-3315.7z M7603.1-3315.7v-488.1h-478.5h-478.5v488.1v488.1h478.5h478.5V-3315.7z M8923.8-3315.7v-488.1h-488.1h-488.1v488.1v488.1h488.1h488.1V-3315.7z"/><path d="M1267.6,596.6c-237.3-45.9-482.3-239.3-595.3-468.9c-61.2-124.4-65.1-143.5-65.1-333s3.8-208.6,65.1-333.1c153.1-312,507.2-520.6,811.6-480.4c333.1,45.9,602.9,275.6,702.5,599.1c47.9,153.1,47.9,273.7,1.9,423c-95.7,306.2-352.2,535.9-660.4,593.3C1399.6,619.6,1388.2,619.6,1267.6,596.6z M1646.6,221.4c114.8-53.6,187.6-139.7,225.9-266c32.5-107.2,34.5-201,5.7-302.4l-21.1-74.6l-183.7,183.8C1570-138.4,1468.6-50.4,1443.7-42.7c-112.9,32.5-235.4-101.4-195.2-214.4c11.5-28.7,99.5-132.1,195.2-229.7l174.2-176.1l-55.5-13.4c-30.6-9.6-103.4-15.3-160.8-15.3C1118.3-693.5,923-496.3,923-209.2c0,141.6,32.5,239.3,111,329.2C1179.5,290.4,1416.9,330.5,1646.6,221.4z"/><path d="M1277.1-1526.1c-114.8-24.9-178-51.7-319.7-137.8c-107.2-63.2-143.6-99.5-216.3-212.5c-116.8-183.8-149.3-302.4-139.7-503.4c7.7-128.3,19.1-179.9,70.8-285.2c160.8-323.5,535.9-530.2,853.7-468.9c176.1,34.5,312,109.1,446,241.2c254.6,254.6,315.8,578.1,172.3,892c-88,187.6-294.8,375.2-490,444.1C1550.9-1520.4,1372.9-1505,1277.1-1526.1z M1650.4-1905.1c128.2-63.2,201-162.7,233.5-313.9c68.9-329.2-147.4-595.3-478.5-595.3c-76.6,0-160.8,15.3-210.5,34.5c-103.4,42.1-222,176.1-252.7,287.1c-23,86.1-19.1,321.6,5.7,348.4c7.7,7.6,90-61.3,181.8-151.2c91.9-90,185.7-174.2,210.5-187.6c99.5-49.8,233.5,40.2,233.5,158.9c0,47.9-34.4,91.9-193.3,254.6l-193.3,197.2l72.7,11.5c42.1,7.7,84.2,15.3,93.8,19.1C1399.6-1824.7,1552.8-1857.2,1650.4-1905.1z"/><path d="M683.8-3329.1c-80.4-44-86.1-68.9-86.1-380.9c0-166.5,5.7-315.8,11.5-333.1c30.6-80.4,86.1-86.1,811.6-86.1h692.9l55.5,55.5l55.5,55.5v300.5v300.5l-55.5,55.5l-55.5,55.5h-696.7C951.8-3308.1,708.7-3313.8,683.8-3329.1z M1899.2-3717.7v-86.1h-488.1H923v86.1v86.1h488.1h488.1V-3717.7z"/></g></g>
</svg>